<svg xmlns="http://www.w3.org/2000/svg" width="350.001" height="66.892" viewBox="0 0 350.001 66.892"><g transform="translate(-254.732 -349.922)"><g transform="translate(254.732 349.922)"><g transform="translate(166.06 54.892)"><path d="M568,460.9h2.483v7.337h1.331V460.9H574.3v-1.285H568Z" transform="translate(-568 -456.359)" fill="#40c4ff"/><path d="M587.5,464.533h3.612v-1.286H587.5V460.9H591.4v-1.285h-5.213v8.622h5.27v-1.286H587.5Z" transform="translate(-576.545 -456.359)" fill="#40c4ff"/><path d="M608.929,465.486a2.88,2.88,0,0,1-2.559,1.465,3.138,3.138,0,1,1,0-6.276,2.873,2.873,0,0,1,2.538,1.434l.175.328,1.165-.668-.178-.312a4.231,4.231,0,0,0-3.7-2.079,4.435,4.435,0,1,0,0,8.87,4.221,4.221,0,0,0,3.724-2.116l.171-.311-1.164-.668Z" transform="translate(-583.93 -456.248)" fill="#40c4ff"/><path d="M629.261,465.607l-4.123-5.995h-1.069v8.622h1.319v-5.992l4.111,5.992h1.081v-8.622h-1.32Z" transform="translate(-594.347 -456.359)" fill="#40c4ff"/><path d="M647.606,459.378a4.435,4.435,0,1,0,4.435,4.435A4.388,4.388,0,0,0,647.606,459.378Zm0,7.573a3.138,3.138,0,1,1,3.116-3.138A3.093,3.093,0,0,1,647.606,466.951Z" transform="translate(-603.324 -456.248)" fill="#40c4ff"/><path d="M668.042,459.613h-1.32v8.622h5.044v-1.286h-3.724Z" transform="translate(-614.391 -456.359)" fill="#40c4ff"/><path d="M685.063,459.378a4.435,4.435,0,1,0,4.435,4.435A4.388,4.388,0,0,0,685.063,459.378Zm0,7.573a3.138,3.138,0,1,1,3.115-3.138A3.093,3.093,0,0,1,685.063,466.951Z" transform="translate(-620.925 -456.248)" fill="#40c4ff"/><path d="M707.335,465.009h3.293a2.627,2.627,0,0,1-2.786,1.942,3.138,3.138,0,1,1-.045-6.276,2.864,2.864,0,0,1,2.548,1.454l.177.338,1.163-.692-.177-.308a4.261,4.261,0,0,0-3.71-2.089,4.436,4.436,0,1,0,.045,8.87,3.894,3.894,0,0,0,4.176-3.86v-.665h-4.683Z" transform="translate(-631.593 -456.248)" fill="#40c4ff"/><rect width="1.319" height="8.622" transform="translate(84.029 3.254)" fill="#40c4ff"/><path d="M738.179,459.613l-3.35,8.622h1.407l.768-2.009h3.465l.767,2.009h1.407l-3.338-8.622Zm-.674,5.327,1.237-3.226,1.236,3.226Z" transform="translate(-646.395 -456.359)" fill="#40c4ff"/><path d="M767.723,464.533h3.612v-1.286h-3.612V460.9h3.894v-1.285H766.4v8.622h5.27v-1.286h-3.95Z" transform="translate(-661.232 -456.359)" fill="#40c4ff"/><path d="M790.345,459.506l-.034.056h-.688L787,463.9l-2.618-4.336h-.677l-.034-.056v.056h-.6v8.622H784.4V462.1l2.359,3.917h.509l2.359-3.917v6.084h1.319v-8.622h-.6Z" transform="translate(-669.067 -456.309)" fill="#40c4ff"/><path d="M818.978,463.11c-1.2-.394-1.682-.62-1.682-1.272,0-.707.558-1.163,1.422-1.163a1.708,1.708,0,0,1,1.7,1.142l.154.374,1.144-.636-.125-.3a3.017,3.017,0,0,0-2.872-1.88,2.542,2.542,0,0,0-2.753,2.482c0,1.627,1.382,2.076,2.756,2.522,1.214.386,1.792.686,1.792,1.35,0,.775-.593,1.219-1.626,1.219a1.892,1.892,0,0,1-2.024-1.329l-.128-.447-1.17.686.089.276a3.206,3.206,0,0,0,3.232,2.112c1.768,0,2.956-1.016,2.956-2.527C821.844,464.058,820.321,463.554,818.978,463.11Z" transform="translate(-684.334 -456.248)" fill="#40c4ff"/><path d="M835.433,459.613l-3.351,8.622h1.407l.767-2.009h3.465l.768,2.009H839.9l-3.337-8.622Zm-.674,5.327L836,461.714l1.237,3.226Z" transform="translate(-692.095 -456.359)" fill="#40c4ff"/><path d="M858.927,453.474h-1.578l-1.357,2.155h1.391Z" transform="translate(-703.331 -453.474)" fill="#40c4ff"/><path d="M857.2,465.233a1.94,1.94,0,0,1-3.873,0v-5.62h-1.32v5.62a3.259,3.259,0,0,0,6.512,0v-5.62H857.2Z" transform="translate(-701.458 -456.359)" fill="#40c4ff"/><path d="M875.078,459.613h-3.329v8.622h3.329a4.317,4.317,0,0,0,0-8.622Zm0,7.336h-2.01V460.9h2.01a3.036,3.036,0,0,1,0,6.05Z" transform="translate(-710.735 -456.359)" fill="#40c4ff"/><path d="M893.873,466.949v-2.416h3.612v-1.286h-3.612V460.9h3.894v-1.285h-5.213v8.622h5.27v-1.286Z" transform="translate(-720.511 -456.359)" fill="#40c4ff"/></g><path d="M317.3,368h-7.388v-7.545a10.534,10.534,0,1,0-21.067.16V372.09h12.55v-9.51a2.017,2.017,0,1,0-4.034,0v5.414h-4.42v-7.539a6.445,6.445,0,0,1,6.593-6.436,6.515,6.515,0,0,1,6.282,6.556v11.5h.01v8.484h9.52a2.017,2.017,0,0,0,0-4.033h-5.424V372.1h7.539a6.445,6.445,0,0,1,6.435,6.592,6.515,6.515,0,0,1-6.556,6.283H305.821V385h-8.463v9.511a2.017,2.017,0,1,0,4.034,0V389.1h4.42v7.538a6.445,6.445,0,0,1-6.593,6.436,6.516,6.516,0,0,1-6.281-6.556V384.993h-4.1v11.644a10.534,10.534,0,0,0,21.067,0v-7.571h7.548A10.534,10.534,0,1,0,317.3,368Z" transform="translate(-270.761 -349.922)" fill="#40c4ff"/><path d="M308.948,402.088a2.067,2.067,0,1,1-2.067-2.067,2.067,2.067,0,0,1,2.067,2.067" transform="translate(-278.265 -373.464)" fill="#40c4ff"/><path d="M276.9,405.093H265.424a10.534,10.534,0,1,1-.159-21.067h7.583v4.1h-7.462a6.517,6.517,0,0,0-6.557,6.281A6.444,6.444,0,0,0,265.266,401H272.8v-4.407H267.38a2.017,2.017,0,0,1-2.016-2.017h0a2.016,2.016,0,0,1,2.016-2.016H276.9Z" transform="translate(-254.732 -365.948)" fill="#012856"/><g transform="translate(66.508 12.56)"><rect width="4.811" height="31.625" fill="#012856"/><path d="M410.928,385.917A13.413,13.413,0,0,0,402.7,388.5l-.534-2.372h-3.88v24.89h4.683v-13.9a6.012,6.012,0,0,1,2.486-5.243,8.762,8.762,0,0,1,4.912-1.448,7.172,7.172,0,0,1,4.721,1.533c1.475,1.438,1.475,4.209,1.475,5.393v13.668h4.682V396.41C421.249,389.643,417.584,385.917,410.928,385.917Z" transform="translate(-388.699 -379.396)" fill="#012856"/><path d="M460.931,401.592a3.6,3.6,0,0,1-2.413.9,3.7,3.7,0,0,1-1.284-.241c-1.622-.668-1.529-2.733-1.523-2.867V386.321h6.565v-4.339H455.71v-4.8h-4.682v20.188a23.488,23.488,0,0,0,.136,3.236c.516,3.94,3.251,6.485,6.968,6.485,3.817,0,5.49-2.06,5.559-2.148Z" transform="translate(-413.481 -375.289)" fill="#012856"/><path d="M492.315,385.917c-7.913,0-12.638,4.725-12.638,12.638s4.725,12.638,12.638,12.638c4.465,0,8.16-1.538,10.4-4.331l-3.244-3.076a9.168,9.168,0,0,1-7.159,2.9c-4.772,0-7.506-2.155-7.764-6.086h19.441l.1-.687c.6-4.329-.225-7.9-2.386-10.339C499.546,387.18,496.3,385.917,492.315,385.917Zm0,4.511a8.086,8.086,0,0,1,5.958,2.041,5.7,5.7,0,0,1,1.486,4.045h-15.2C484.85,392.689,487.7,390.428,492.315,390.428Z" transform="translate(-426.944 -379.396)" fill="#012856"/><path d="M546.117,385.917a9.928,9.928,0,0,0-6.822,2.286l-.417-2.115h-3.9v24.933h4.683V397.628c.043-2.082.271-4.244,2.494-5.8,1.706-1.2,3.175-1.3,5.286-1.061l.369-4.627A5.488,5.488,0,0,0,546.117,385.917Z" transform="translate(-452.932 -379.396)" fill="#012856"/><path d="M635.121,385.917A9.928,9.928,0,0,0,628.3,388.2l-.417-2.114h-3.9v24.933h4.682V397.628c.044-2.082.272-4.245,2.494-5.8,1.706-1.2,3.175-1.3,5.285-1.061l.37-4.627A5.487,5.487,0,0,0,635.121,385.917Z" transform="translate(-494.756 -379.396)" fill="#012856"/><path d="M665.433,385.917c-7.914,0-12.638,4.725-12.638,12.638s4.725,12.638,12.638,12.638,12.638-4.725,12.638-12.638S673.347,385.917,665.433,385.917Zm0,20.722c-5.193,0-7.827-2.72-7.827-8.084s2.634-8.084,7.827-8.084,7.827,2.72,7.827,8.084S670.627,406.639,665.433,406.639Z" transform="translate(-508.294 -379.396)" fill="#012856"/><path d="M720.309,390.428c3.91,0,6.162,1.455,7.087,4.578l.169.57h4.811l-.222-.974c-1.293-5.683-5.4-8.686-11.889-8.686-7.752,0-12.381,4.725-12.381,12.638s4.629,12.638,12.381,12.638c6.489,0,10.6-3.019,11.889-8.73l.219-.972h-4.809l-.169.57c-.933,3.152-3.186,4.621-7.087,4.621-5.079,0-7.655-2.734-7.655-8.127S715.229,390.428,720.309,390.428Z" transform="translate(-534.181 -379.396)" fill="#012856"/><path d="M773.752,385.917c-7.914,0-12.638,4.725-12.638,12.638s4.724,12.638,12.638,12.638c4.465,0,8.16-1.538,10.4-4.331l-3.244-3.076a9.169,9.169,0,0,1-7.159,2.9c-4.772,0-7.506-2.155-7.764-6.086h19.441l.1-.687c.6-4.329-.225-7.9-2.386-10.339C780.983,387.18,777.738,385.917,773.752,385.917Zm0,4.511a8.087,8.087,0,0,1,5.958,2.041,5.694,5.694,0,0,1,1.486,4.045h-15.2C766.287,392.689,769.14,390.428,773.752,390.428Z" transform="translate(-559.194 -379.396)" fill="#012856"/><path d="M825.442,396.184c-4.02-.564-6.041-1.693-6.008-3.328.141-2.5,3.721-2.766,5.241-2.766,1.635.025,5.437.428,5.437,3.622l4.6-.024c-.14-4.675-4-7.758-9.849-7.852-5.7,0-9.562,2.7-9.847,6.878-.289,4.286,2.9,6.835,9.737,7.793,4.047.571,6.141,1.605,6.222,3.029,0,2.3-1.754,3.3-5.853,3.364-6.3,0-6.658-3.576-6.671-3.728l-4.508.07a6.885,6.885,0,0,0,2.164,5,12.415,12.415,0,0,0,8.6,2.921c.18,0,.362,0,.544-.009,7.113,0,10.4-3.7,10.45-7.138C835.756,398.348,830.248,396.853,825.442,396.184Z" transform="translate(-584.017 -379.359)" fill="#012856"/><path d="M872.953,396.184c-4.019-.564-6.04-1.693-6.008-3.328.142-2.5,3.721-2.766,5.241-2.766,1.635.025,5.437.429,5.437,3.622l4.6-.024c-.14-4.675-4-7.758-9.849-7.852-5.7,0-9.562,2.7-9.848,6.878-.288,4.286,2.9,6.835,9.736,7.793,4.048.571,6.141,1.605,6.222,3.029,0,2.3-1.754,3.3-5.853,3.364-6.3,0-6.658-3.576-6.671-3.728l-4.508.07a6.883,6.883,0,0,0,2.164,5,12.413,12.413,0,0,0,8.6,2.921c.18,0,.361,0,.544-.009,7.113,0,10.4-3.7,10.45-7.138C883.268,398.348,877.759,396.853,872.953,396.184Z" transform="translate(-606.343 -379.359)" fill="#012856"/><path d="M580.778,386.059a12.846,12.846,0,0,0-8.18,2.513l-.455-2.341h-3.891v33.041h4.673V408.979a13.117,13.117,0,0,0,7.853,2.3c7.736,0,12.354-4.715,12.354-12.611S588.514,386.059,580.778,386.059Zm-.257,4.544c5.155,0,7.768,2.715,7.768,8.067s-2.613,8.067-7.768,8.067c-5.182,0-7.81-2.714-7.81-8.067S575.339,390.6,580.521,390.6Z" transform="translate(-468.566 -379.463)" fill="#012856"/></g></g><g transform="translate(600.092 362.561)"><path d="M910.768,376.567c0-.379-.17-.831-.982-.831h-1.075v2.552h.456v-.9h.59l.635.9h.532l-.677-.959A.726.726,0,0,0,910.768,376.567Zm-1.6-.41h.607c.382,0,.538.118.538.41s-.156.416-.538.416h-.607Z" transform="translate(-907.404 -374.692)" fill="#012856"/><path d="M908.566,373.766a2.32,2.32,0,1,0,2.32,2.32A2.132,2.132,0,0,0,908.566,373.766Zm0,4.183a1.668,1.668,0,0,1-1.869-1.863,1.866,1.866,0,1,1,3.732,0A1.665,1.665,0,0,1,908.566,377.949Z" transform="translate(-906.246 -373.766)" fill="#012856"/></g></g></svg>